<svg viewBox="0 0 128 128" xmlns="http://www.w3.org/2000/svg" fill-rule="evenodd" clip-rule="evenodd" stroke-linejoin="round" stroke-miterlimit="2"><path d="M117 61h-13.2l-2-25.1C100.2 16.2 83.8 1 64 1 44.2 1 27.8 16.2 26.2 35.9l-2 25.1H11C5.5 61 1 65.5 1 71s4.5 10 10 10h11.7L19 127l15.5-15 14 15 15-15 15 15 15-15 15.5 15-3.7-46H117c5.5 0 10-4.5 10-10s-4.5-10-10-10z" fill="#19916b" fill-rule="nonzero"/><path d="M44 86c0-11 9-20 20-20s20 9 20 20v6H44v-6z" fill="#13694e" fill-rule="nonzero"/><circle cx="48" cy="46" r="11" fill="#fff"/><circle cx="80" cy="46" r="11" fill="#fff"/></svg>